<svg id="Layer_1" data-name="Layer 1" xmlns="http://www.w3.org/2000/svg" viewBox="0 0 841.89 595.28"><defs><style>.cls-1,.cls-3{fill:#020868;}.cls-2{fill:#fff200;}.cls-3{stroke:#fff200;stroke-miterlimit:10;stroke-width:7px;}.cls-4{font-size:54.7px;font-family:Anton-Regular, Anton;}.cls-4,.cls-5{fill:#fff;}</style></defs><path class="cls-1" d="M349.09,529.13C326.62,518,303.67,507.74,281,497.06c-16.95-8-33.6-16.49-48-28.79-23.43-20.08-36.54-45.2-38.83-76.26-2-26.67.73-52.9,4.79-79.13,3.88-25.09,8.15-50.1,7.24-75.71-.75-21.35-5.82-41.64-14-61.09-5.58-13.29-12.8-25.89-19.33-38.77-.39-.77-1.68-1.09-1.93-1.93l.21-.69c7.69-7.53,15.44-15,23.07-22.59,12.55-12.49,25-25.13,37.61-37.51a9.93,9.93,0,0,1,6-2.44q152.52-.18,305.06,0a8.46,8.46,0,0,1,5.43,1.9q30.18,29.85,60.11,60l1.23,1.23a216.57,216.57,0,0,0-23.47,47.05c-9.94,27.14-14.19,55-10.41,83.78,3.52,26.8,8.31,53.45,11.3,80.31,2.89,26,3.22,52.15-6,77.38-5.13,14-14.19,25.4-24.23,36.17-15.16,16.25-34.23,26.53-54,35.7-18.46,8.55-37.25,16.4-55.52,25.34-18.44,9-36,19.7-50.64,34.4l-.06.06a8.41,8.41,0,0,1-12,.08A130.34,130.34,0,0,0,349.09,529.13ZM179.61,134.93c6.5,13.9,13,26.64,18.52,39.82,13.68,32.83,17,67,12.11,102.12-3.71,26.78-7.45,53.56-10.36,80.43a160.83,160.83,0,0,0,2.5,50.59c6.21,29.52,24.3,50.57,48.84,66.52,18.72,12.18,39.31,20.84,59.81,29.49,28.64,12.08,55.68,26.66,78.73,47.87.26.24.74.24.91.3,6.06-5,11.82-10,17.92-14.58,18.49-13.87,39.08-23.89,60.22-33s42.5-18.09,61.95-30.72c32.57-21.15,50.79-50.5,52.15-90,.76-21.91-2-43.37-5.74-64.78-4.67-26.82-8.34-53.64-7.81-81a172.27,172.27,0,0,1,11.89-59.08c5.66-14.75,11.78-29.32,20.79-42.64-19-18.93-37.7-37.7-56.56-56.33-1-1-3.21-1.27-4.85-1.27q-150.36-.09-300.71,0A9.44,9.44,0,0,0,234,81.25c-11.83,11.56-23.45,23.35-35.19,35C192.2,122.78,185.5,129.19,179.61,134.93Z"/><path class="cls-2" d="M179.61,134.93c5.89-5.74,12.59-12.15,19.17-18.68,11.74-11.65,23.36-23.44,35.19-35a9.44,9.44,0,0,1,5.95-2.53q150.35-.18,300.71,0c1.64,0,3.81.25,4.85,1.27,18.86,18.63,37.59,37.4,56.56,56.33-9,13.32-15.13,27.89-20.79,42.64A172.27,172.27,0,0,0,569.36,238c-.53,27.38,3.14,54.2,7.81,81,3.73,21.41,6.5,42.87,5.74,64.78-1.36,39.48-19.58,68.83-52.15,90-19.45,12.63-40.77,21.59-61.95,30.72s-41.73,19.13-60.22,33c-6.1,4.59-11.86,9.63-17.92,14.58-.17-.06-.65-.06-.91-.3C366.71,530.56,339.67,516,311,503.9c-20.5-8.65-41.09-17.31-59.81-29.49-24.54-16-42.63-37-48.84-66.52a160.83,160.83,0,0,1-2.5-50.59c2.91-26.87,6.65-53.65,10.36-80.43,4.85-35.13,1.57-69.29-12.11-102.12C192.65,161.57,186.11,148.83,179.61,134.93ZM390.16,531.28c6.35-4.91,12.14-10,18.49-14.17,17.85-11.79,37.42-20.27,56.94-28.81,20.27-8.87,40.8-17.3,58.76-30.52,18.35-13.51,31.66-30.73,37.11-53.32,5.28-21.88,4.53-43.93,1.83-66-3.25-26.57-7.35-53.06-9.48-79.72-1.22-15.27-.31-30.93,1.52-46.19,3-25.15,11.61-48.78,23.32-71.23,1.44-2.77,1.2-4.38-1-6.59q-18.6-18.23-36.84-36.8a9.11,9.11,0,0,0-7.16-3q-140.52.12-281,.06a37.85,37.85,0,0,0-5.33.07,6.61,6.61,0,0,0-3.52,1.51c-13.19,13.09-26.25,26.31-39.49,39.37-2.08,2.05-2.38,3.53-1.06,6.22a242.83,242.83,0,0,1,25,107.16c.07,20.6-3.06,40.85-6.26,61.09-4.37,27.64-6.68,55.34-3.74,83.31,2,18.66,8.38,35.16,21.62,48.83a110,110,0,0,0,29.45,21.94c18.89,9.52,38.1,18.39,57.19,27.52C349.08,502.88,372.44,512.54,390.16,531.28Z"/><path class="cls-3" d="M390.16,531.28c-17.72-18.74-41.08-28.4-63.72-39.24-19.09-9.13-38.3-18-57.19-27.52a110,110,0,0,1-29.45-21.94c-13.24-13.67-19.66-30.17-21.62-48.83-2.94-28-.63-55.67,3.74-83.31,3.2-20.24,6.33-40.49,6.26-61.09a242.83,242.83,0,0,0-25-107.16c-1.32-2.69-1-4.17,1.06-6.22,13.24-13.06,26.3-26.28,39.49-39.37a6.61,6.61,0,0,1,3.52-1.51,37.85,37.85,0,0,1,5.33-.07q140.52,0,281-.06a9.11,9.11,0,0,1,7.16,3q18.27,18.54,36.84,36.8c2.25,2.21,2.49,3.82,1,6.59-11.71,22.45-20.31,46.08-23.32,71.23-1.83,15.26-2.74,30.92-1.52,46.19,2.13,26.66,6.23,53.15,9.48,79.72,2.7,22.09,3.45,44.14-1.83,66-5.45,22.59-18.76,39.81-37.11,53.32-18,13.22-38.49,21.65-58.76,30.52-19.52,8.54-39.09,17-56.94,28.81C402.3,521.31,396.51,526.37,390.16,531.28Zm.78-434q-70.37,0-140.72.09a9.64,9.64,0,0,0-6.11,2.24c-11.86,11.52-23.39,23.39-35.3,34.86-3.15,3-3.63,5.24-1.71,9.3a248.83,248.83,0,0,1,23.62,93.9c1.41,25.59-2.27,50.73-6.41,75.8-4.35,26.3-6,52.64-3.58,79.23,2.43,27,15.82,47.06,38,61.94,16.53,11.1,34.54,19.29,52.56,27.48,27.07,12.31,55,23.14,77.46,43.61.7.65,3.06.37,4-.33,4.23-3,8.1-6.49,12.36-9.42,17.44-12,36.79-20.28,56-28.81,19.83-8.81,40.12-16.75,58-29.32,20.85-14.64,37.21-33.26,40.67-59.05,2.53-18.94,2.12-38.52.83-57.66-1.41-20.94-5.56-41.68-8.12-62.55-3.85-31.33-3.52-62.58,5.6-93,4.37-14.59,10.62-28.61,16.24-42.8,1.39-3.51,1.17-5.87-1.69-8.65-11.36-11.06-22.51-22.34-33.57-33.7a9.88,9.88,0,0,0-7.88-3.2Q461.09,97.39,390.94,97.32Z"/><path class="cls-1" d="M390.94,97.31q70.15,0,140.3-.06a9.88,9.88,0,0,1,7.88,3.2c11.06,11.36,22.21,22.64,33.57,33.7,2.86,2.78,3.08,5.14,1.69,8.65C568.76,157,562.51,171,558.14,185.6c-9.12,30.45-9.45,61.7-5.6,93,2.56,20.87,6.71,41.61,8.12,62.55,1.29,19.14,1.7,38.72-.83,57.66-3.46,25.79-19.82,44.41-40.67,59.05-17.9,12.57-38.19,20.51-58,29.32-19.22,8.53-38.57,16.82-56,28.81-4.26,2.93-8.13,6.44-12.36,9.42-1,.7-3.35,1-4,.33-22.5-20.47-50.39-31.3-77.46-43.61-18-8.19-36-16.38-52.56-27.48-22.15-14.88-35.54-35-38-61.94-2.4-26.59-.77-52.93,3.58-79.23,4.14-25.07,7.82-50.21,6.41-75.8a248.83,248.83,0,0,0-23.62-93.9c-1.92-4.06-1.44-6.27,1.71-9.3,11.91-11.47,23.44-23.34,35.3-34.86a9.64,9.64,0,0,1,6.11-2.24Q320.58,97.23,390.94,97.31Z"/><text class="cls-4" transform="translate(242.46 164.58)">RISE ACADEMY</text><polygon class="cls-2" points="393.11 529.12 385.56 528.25 385.56 191.79 393.11 191.79 393.11 529.12"/><polygon class="cls-2" points="220.63 322.79 221.51 315.24 561.15 315.24 561.15 322.79 220.63 322.79"/><polygon class="cls-2" points="220.04 191.79 220.92 184.24 560.55 184.24 560.55 191.79 220.04 191.79"/><path class="cls-5" d="M417.38,261.7c.83-2.14,2.6-3.53,4.1-5.13q8.1-8.58,16.23-17.13c3-3.19,6.05-6.4,9.12-9.56,2.26-2.33,4.87-2.3,7.12,0q7.67,7.9,15.31,15.82c.69.72,1.36,1.45,2.1,2.23l30.79-32.06-6.44-6.2,25.83-7.48c-2.16,8.74-4.28,17.32-6.44,26.1l-6.21-5.95c-1.52,1.4-3.05,2.71-4.45,4.15-3.23,3.28-6.39,6.61-9.57,9.93q-6.36,6.63-12.72,13.26c-2.63,2.73-5.25,5.46-7.95,8.13a4.18,4.18,0,0,1-5.62,0c-2.17-2.09-4.25-4.28-6.35-6.44-3.84-4-7.67-7.94-11.5-11.9a3.5,3.5,0,0,0-.37-.31l-3.72,3.92-16.09,16.92c-1.64,1.72-3.28,3.45-4.9,5.2-1.79,1.95-3.9,2.41-6,1.27a5.28,5.28,0,0,1-2.23-3Z"/><path class="cls-5" d="M508.87,230.67c1.47,1.41,2.84,2.92,4.4,4.18,1.4,1.12,1.64,2.43,1.64,4.11q-.07,28.91,0,57.81c0,1.12,0,1.12-1.13,1.12H501.39v-.83q0-28.81,0-57.64a2.35,2.35,0,0,1,.71-1.82c2.17-2.18,4.27-4.43,6.4-6.64A2.84,2.84,0,0,1,508.87,230.67Z"/><path class="cls-5" d="M498.35,241.62v56.21H484.9v-.94q0-20.2,0-40.43a2.15,2.15,0,0,1,.68-1.68q6.12-6.32,12.21-12.68C497.91,242,498.07,241.86,498.35,241.62Z"/><path class="cls-5" d="M465.33,297.84H452V249.45c1,1,1.84,1.85,2.68,2.73l9.06,9.39a.15.15,0,0,0,.05.06c1.57.83,1.62,2.23,1.62,3.8-.05,10.43,0,20.85,0,31.27Z"/><path class="cls-5" d="M448.76,297.85c-.27,0-.55,0-.82,0-3.88,0-7.76,0-11.64,0-.76,0-.92-.23-.92-1,0-10.87,0-21.74,0-32.61a1.63,1.63,0,0,1,.35-1q6.33-6.71,12.71-13.36a1.67,1.67,0,0,1,.29-.21Z"/><path class="cls-5" d="M481.73,297.84H468.47V264.55c.65.1,1.26.22,1.89.28a10.53,10.53,0,0,0,9.06-3.61c.72-.76,1.56-1.41,2.31-2.08Z"/><path class="cls-5" d="M418.93,273.06c1.52,0,2.93.1,4.32,0a10.22,10.22,0,0,0,6.65-3.56c.74-.8,1.5-1.58,2.4-2.52v30.86a6.34,6.34,0,0,1-.72.08c-4,0-7.93,0-11.9,0-.62,0-.8-.18-.8-.8q0-11.76,0-23.53C418.9,273.35,418.93,273.13,418.93,273.06Z"/><path class="cls-5" d="M321.53,385.22l7,17.34,11.09-9.84.16.1-7.14,13.47c-2.36-2.07-5.34-2.2-8.16-2.59a168.28,168.28,0,0,0-36.86-.82c-4.18.34-8.33,1.12-12.48,1.76a4.68,4.68,0,0,0-3.19,1.77l-7.24-13.64.14-.1L276,402.36c2.3-5.71,4.55-11.33,6.88-17.13l14.35,15.57c1.67-3.13,3.28-6.18,5-9.36l5,9.37Z"/><path class="cls-5" d="M331.83,389l-4.22-13.55L308,396.2l-5.81-10.59c-2,3.57-3.86,7-5.81,10.6l-19.58-20.76L272.6,389c-.86-.85-1.63-1.58-2.37-2.35a.73.73,0,0,1-.1-.6q2.33-8.76,4.66-17.52s0,0,.16-.12l20.78,22.05c2.17-4.1,4.29-8.11,6.49-12.25l6.48,12.25,20.91-22.17c.71,2.7,1.39,5.23,2.06,7.76.84,3.18,1.67,6.36,2.55,9.53a1.31,1.31,0,0,1-.47,1.56C333.11,387.69,332.53,388.31,331.83,389Z"/><path class="cls-5" d="M302.22,365.76l3.56,6.62c1.8,3.34,3.59,6.68,5.41,10a.86.86,0,0,1-.15,1.23c-.62.58-1.18,1.23-1.88,2l-6.94-12.52-7,12.53c-.76-.81-1.47-1.5-2.09-2.28-.14-.18,0-.7.13-1,2.53-4.75,5.09-9.48,7.64-14.21Z"/><path class="cls-5" d="M289,419.89c-2.26-.22-4.53-.35-6.78-.68-2.43-.35-4.85-.84-7.26-1.35a7.79,7.79,0,0,1-2.11-.83c-1.19-.63-1.21-1.33,0-2a7.42,7.42,0,0,1,2.37-.93c4.12-.62,8.24-1.32,12.39-1.67a173.86,173.86,0,0,1,29.31,0c4.15.35,8.27,1.06,12.39,1.69a7.53,7.53,0,0,1,2.37.94c1.08.61,1.11,1.39,0,1.85a23.15,23.15,0,0,1-5,1.56c-3.43.56-6.9.88-10.35,1.29a6,6,0,0,1-.85,0c3.3-.57,6.6-1.09,9.87-1.73a26.78,26.78,0,0,0,4-1.26c.3-.11.48-.51.71-.78-.27-.2-.52-.52-.81-.58-2.4-.41-4.79-.91-7.21-1.12a200.58,200.58,0,0,0-31.39-.55c-4.6.32-9.19.83-13.79,1.29a6.24,6.24,0,0,0-1.72.49c-.74.3-.76.7-.09,1.13a3.69,3.69,0,0,0,1.29.59c3.12.67,6.24,1.33,9.37,1.94,1.14.22,2.3.32,3.45.48Z"/><path class="cls-5" d="M329.25,398.17c-1.86-4.95-3.67-9.74-5.45-14.54a.9.9,0,0,1,.15-.81c.68-.7,1.42-1.34,2.2-2.05l4.47,12.68,16.52-14.92c-1.63,2.88-2.54,6.12-5.27,8.38-3.94,3.26-7.65,6.81-11.46,10.24C330.07,397.47,329.71,397.77,329.25,398.17Z"/><path class="cls-5" d="M273.81,393.45l4.5-12.73c.79.76,1.55,1.45,2.27,2.19a.81.81,0,0,1,.08.67q-2.7,7.2-5.43,14.38s-.05,0-.17.1c-1.54-1.38-3.12-2.78-4.68-4.19-3-2.71-6-5.41-9-8.14a6.1,6.1,0,0,1-1.22-1.54c-1-1.82-2-3.68-2.83-5.65Z"/><path class="cls-5" d="M332.41,409.12c-8-3.13-16.33-3.3-24.66-3.6a145.19,145.19,0,0,0-27.64,1.37,24.81,24.81,0,0,0-8.05,2.37,1.6,1.6,0,0,1,1.06-2.21,31,31,0,0,1,8.36-2,185.07,185.07,0,0,1,31.84-.86A74,74,0,0,1,328,406c1.19.29,2.32.79,3.49,1.18S332.65,408.23,332.41,409.12Z"/><path class="cls-5" d="M272.07,414.08c-.44-1.29.19-1.85,1.19-2.26a33.48,33.48,0,0,1,9-2.08,184.77,184.77,0,0,1,38.49-.14,91.56,91.56,0,0,1,9.2,1.78,9.76,9.76,0,0,1,1.33.5,1.54,1.54,0,0,1,1.1,2.11c-7.32-3-15.09-3.26-22.82-3.58a151.13,151.13,0,0,0-29,1.24A26.88,26.88,0,0,0,272.07,414.08Z"/><path class="cls-5" d="M276,363.8a2.62,2.62,0,1,1-2.57-2.73A2.65,2.65,0,0,1,276,363.8Z"/><path class="cls-5" d="M333.65,363.74a2.62,2.62,0,1,1-5.23,0,2.62,2.62,0,1,1,5.23,0Z"/><path class="cls-5" d="M352.42,373.55a2.53,2.53,0,0,1-2.47,2.58,2.5,2.5,0,0,1-2.44-2.6,2.46,2.46,0,1,1,4.91,0Z"/><path class="cls-5" d="M305,360.62a2.82,2.82,0,1,1-2.83-2.95A2.9,2.9,0,0,1,305,360.62Z"/><path class="cls-5" d="M256.92,373.57a2.48,2.48,0,0,1-2.48,2.56,2.58,2.58,0,1,1,2.48-2.56Z"/><path class="cls-2" d="M496.3,433.46H441.51c0-7.12-.05-14.19.05-21.26a8.4,8.4,0,0,1,1.1-2.91,5.72,5.72,0,0,1,.69-1c1.76-2.49,3-5.93,5.41-7.18s6-.35,9-.35c5.13,0,10.26-.06,15.38.05a3.36,3.36,0,0,1,2.44,1.13c6.86,10.12,13.62,20.31,20.39,30.49A5,5,0,0,1,496.3,433.46ZM476.85,423a4.51,4.51,0,0,0-4.48-4.38,4.39,4.39,0,0,0-4.13,4.43,4.27,4.27,0,0,0,4.31,4.2A4.39,4.39,0,0,0,476.85,423Zm-26.18-3a3.84,3.84,0,0,0-3.73-3.83,3.89,3.89,0,0,0-3.87,3.94,4,4,0,0,0,3.73,3.86A3.89,3.89,0,0,0,450.67,419.91Zm19.11-15a3.2,3.2,0,0,0-3.25-3.09c-1.87.18-3.09,1.2-3.06,3.22s1.32,3,3.19,3.07A3.17,3.17,0,0,0,469.78,404.94Zm-10.14,4.73c-1.66-1.07-2.66-2.23-3.49-2.11S454,409,454,409.81a3.14,3.14,0,0,0,2.25,2.15C457.08,412,458,410.84,459.64,409.67Zm8.6,1.31c-.73.93-1.63,1.61-1.52,2,.16.65,1,1.13,1.59,1.68.5-.54,1.35-1,1.4-1.64S468.94,411.93,468.24,411Zm-8.69,11.51c-.65.9-1.38,1.45-1.35,2s.81,1,1.26,1.51c.52-.51,1.31-.95,1.47-1.56C461,424,460.22,423.37,459.55,422.49Zm24.08,4.05c.61-1,1.28-1.54,1.22-2.05s-.83-1-1.29-1.45c-.5.53-1.27,1-1.4,1.62C482.07,425.06,482.91,425.66,483.63,426.54Z"/><path class="cls-2" d="M484.94,388.78h30v3.41a14.21,14.21,0,0,0-2.76.17,10.17,10.17,0,0,0-2.13,1.13,8.1,8.1,0,0,0,2,1.2,13.16,13.16,0,0,0,2.83,0v7.41a23.59,23.59,0,0,0-3.37.05c-.53.07-1,.65-1.46,1,.48.45.89,1.17,1.43,1.28a17.81,17.81,0,0,0,3.38.06V412a19.5,19.5,0,0,0-3.33.05c-.55.1-1,.79-1.48,1.22.46.38.89,1,1.4,1.09a22.21,22.21,0,0,0,3.4.05v7.19a19.58,19.58,0,0,0-3.35.23c-.55.12-1,.84-1.44,1.29.48.36.92.95,1.45,1a20.58,20.58,0,0,0,3.14,0c.18.4.26.62.37.83.39.7.8,1.39,1.2,2.08.42-.75,1.2-1.5,1.21-2.25.08-10.33.06-20.65.06-31v-5h3v2.57q0,17.72,0,35.44c0,4.82-1.9,6.73-6.75,6.76-3.22,0-6.43,0-9.69,0-1.42-6.15-5.81-10.5-8.94-15.56-2.87-4.63-6-9.07-9.05-13.61a4.9,4.9,0,0,1-1.09-2.17C484.89,397.78,484.94,393.35,484.94,388.78Z"/><path class="cls-2" d="M438.06,438.43c.93-2.15,2.33-2.46,4.15-2.45,17.37.06,34.73,0,52.1,0,1.59,0,3.55.18,4-1.63a6,6,0,0,0-.91-4.23c-9-13.72-18.23-27.35-27.29-41.06a8,8,0,0,1-1.25-4.11c-.11-9.59-.05-19.17-.05-28.76v-3H454.66c0,.84-.12,1.7-.12,2.57,0,9.75,0,19.5,0,29.25a5.78,5.78,0,0,1-.66,3.05C450,394,446,399.88,442.06,405.77l-.81-.21c.42-1.59.51-3.38,1.33-4.72,2.73-4.43,5.76-8.67,8.56-13a6.2,6.2,0,0,0,1-3.17c.08-9.75,0-19.5.05-29.25,0-1.17.1-2.16-1.42-2.69a2.6,2.6,0,0,1-1.07-2.37,3.64,3.64,0,0,1,2.4-1.93,68.12,68.12,0,0,1,7.43-.1c3.72,0,7.45-.15,11.16.08,1.05.06,2,1.22,3.05,1.87-.61.94-1.24,1.86-1.81,2.82a4,4,0,0,0-.79,1.76c-.05,9.92-.08,19.83,0,29.75a6.64,6.64,0,0,0,1.11,3.4c9.08,13.71,18.27,27.33,27.28,41.08a9.06,9.06,0,0,1,1.32,5.48c-.28,2.66-2.62,3.9-6,3.91H438.06Z"/><path class="cls-2" d="M502,438.43c.42-2,1.48-2.53,3.23-2.46,3,.13,6.11.06,9.17,0,5.26,0,8.52-3.22,8.58-8.49s0-10.42,0-15.62V361H482.57v37.08l-.95.23c-.51-1.67-1.45-3.33-1.47-5-.13-10.65-.07-21.31-.07-32.11-.59-.2-1.3-.21-1.6-.57-.67-.79-1.58-1.78-1.54-2.66,0-.67,1.32-1.33,2.11-1.91.21-.16.64,0,1,0q22.71,0,45.4,0c2.46,0,3.84,1.24,3.09,2.94-.46,1-1.76,1.68-3.13,2.89v64.5c0,8.08-4,12.09-12,12.1Z"/><path class="cls-2" d="M421.43,372c-.66-.2-1.32-.19-1.56-.51-.65-.82-1.55-1.8-1.5-2.68a2.86,2.86,0,0,1,2.11-1.83c6.52-.14,13-.16,19.57,0a3.19,3.19,0,0,1,2.18,2.08c.16.65-.89,1.66-1.54,2.38-.28.31-.91.3-1.59.5v3.42c0,17.91,0,35.82,0,53.73,0,6.56-5.48,10.74-11.47,8.93-3.8-1.15-6.16-4.5-6.17-8.86q0-27,0-54Zm2.66-.18a2.52,2.52,0,0,0-.21.65c0,19.16-.1,38.32.09,57.48,0,1.66,1.44,3.65,2.78,4.89,1.82,1.69,4.27,1.63,6.5.45,2.53-1.34,3.48-3.56,3.48-6.36q0-27.5,0-55c0-.65-.06-1.31-.11-2.11Z"/><path class="cls-2" d="M465.38,384c-.92.6-1.51,1.29-2,1.22a1.86,1.86,0,0,1-1.24-1.36,1.91,1.91,0,0,1,1.35-1.29C464,382.55,464.52,383.31,465.38,384Z"/><path class="cls-2" d="M462.42,399.71c-.6-.87-1.31-1.46-1.2-1.82a2.17,2.17,0,0,1,1.37-1.29c.3-.07,1.19.79,1.17,1.18C463.72,398.33,463.07,398.84,462.42,399.71Z"/><path class="cls-2" d="M426.35,400.87h8.06v8.74c0,6.52,0,13.05,0,19.57,0,2.8-1.68,4.59-4.11,4.58a4.12,4.12,0,0,1-4.14-4.33c-.07-9.25,0-18.5,0-27.75A3.56,3.56,0,0,1,426.35,400.87Z"/><path class="cls-2" d="M322.64,283.78a5,5,0,0,1,1,3.41,4.75,4.75,0,0,1-3.75,4.4,1.11,1.11,0,0,0-.95.82,5.93,5.93,0,0,1-5.74,4.06,1.79,1.79,0,0,0-1.36.54,4.41,4.41,0,0,1-6.12,0,1.85,1.85,0,0,0-1.11-.47,6.09,6.09,0,0,1-6-4.24,1,1,0,0,0-.61-.57,5,5,0,0,1-3.14-7.71,1.17,1.17,0,0,0,.12-.25,4.77,4.77,0,0,1-2.57-4.49,5.11,5.11,0,0,1,.82-2.58,3.27,3.27,0,0,0,.45-2.76,11.27,11.27,0,0,0-2.86-5.55c-1.21-1.38-2.47-2.74-3.8-4a25.49,25.49,0,0,1-7.37-13.83c-1.77-8.95,0-17.23,5.64-24.4,6.92-8.75,16.13-12.63,27.22-11.29A29.13,29.13,0,0,1,338,238.53c2,10.1-.73,19-7.77,26.57-1.5,1.61-3,3.17-4.44,4.85a8.48,8.48,0,0,0-2,5.07,1.85,1.85,0,0,0,.28,1.11,4.93,4.93,0,0,1-1.17,7.39A3.87,3.87,0,0,0,322.64,283.78ZM326.26,255l-.31-.17a3.37,3.37,0,0,0-.64.79,7,7,0,0,1-5.34,4.45,1.78,1.78,0,0,0-.87.48,5.34,5.34,0,0,1-9.58-3.61c0-3.44,0-6.88,0-10.31q0-10.18,0-20.36a4.55,4.55,0,0,1,7-3.95,1,1,0,0,0,1.09.07,2.61,2.61,0,0,1,3.24,1.07,1.64,1.64,0,0,0,1,.65,5.78,5.78,0,0,1,4.61,5.36,1,1,0,0,0,.52.7,3.69,3.69,0,0,1,2.36,3.34,1,1,0,0,0,.29.74c2.55,1.86,3.08,6,1.76,8.59a1.41,1.41,0,0,0,0,1,2.69,2.69,0,0,1-.86,3.18c-.2.17-.45.44-.44.65a5.76,5.76,0,0,1-2.47,5.28,16.49,16.49,0,0,1,.34,2.37,4.92,4.92,0,0,1-2,3.68c-1.19,1-2.44,2-3.72,3-3.56,2.62-4.72,7.41-4,12.41h3.19a2.21,2.21,0,0,0,.14-.41,10.82,10.82,0,0,1,2.46-5.55c1.23-1.49,2.53-2.93,3.89-4.29,6.23-6.26,9.08-13.79,8.2-22.56a26.71,26.71,0,0,0-11.45-19.64,27.47,27.47,0,0,0-37.49,5.42,27,27,0,0,0-5.68,20.46,23.75,23.75,0,0,0,5.36,12.92c1.15,1.34,2.41,2.57,3.64,3.83,2.7,2.79,5.14,5.72,5.56,9.83H300c0-1.48.08-2.91,0-4.34a10.77,10.77,0,0,0-4.5-8.41c-1.12-.81-2.2-1.68-3.24-2.59-2.14-1.86-2.55-3.53-1.58-6.16a5.84,5.84,0,0,1-2.4-5.1,1.13,1.13,0,0,0-.41-.75,2.57,2.57,0,0,1-.9-3.08,1.41,1.41,0,0,0-.05-1.28,7.09,7.09,0,0,1,1.74-8.3,1.33,1.33,0,0,0,.39-.78,3.69,3.69,0,0,1,2.4-3.4.94.94,0,0,0,.47-.66,5.71,5.71,0,0,1,4.76-5.4,1.22,1.22,0,0,0,.72-.47,2.71,2.71,0,0,1,3.5-1.21.94.94,0,0,0,.76,0,4.64,4.64,0,0,1,7.25,4.16c-.09,4.79,0,9.58,0,14.38q0,8.18,0,16.37a5.32,5.32,0,0,1-3.53,5.06,5.41,5.41,0,0,1-6-1.64,2.12,2.12,0,0,0-1.05-.62,7.08,7.08,0,0,1-5.11-4.14,8.3,8.3,0,0,0-1-1.35,1.73,1.73,0,0,0,.42,2.16,31.3,31.3,0,0,0,3.33,2.87,12.67,12.67,0,0,1,5.25,7,19.84,19.84,0,0,1,.58,6.69c0,.34,0,.67,0,1h14.42c0-.86,0-1.66,0-2.46-.06-3.82.68-7.38,3.48-10.2.93-.93,2.06-1.66,3.07-2.52a35.81,35.81,0,0,0,2.78-2.58A5.45,5.45,0,0,0,326.26,255Zm-27.64,4.25c-.1-.52-.2-1-.27-1.42a7,7,0,0,1,.54-4.39c.34-.67.84-1.26.09-2a.63.63,0,0,1-.1-.49,1.82,1.82,0,0,1,.28-.48c.15.1.38.18.42.32.28,1,1,1.14,1.89,1.15.2,0,.41.17.62.26-.18.16-.33.39-.53.45a6.14,6.14,0,0,1-.86,0,1,1,0,0,0-.58.19c-1.63,1.75-1.46,6.17.3,7.79a4.29,4.29,0,0,0,4.82.87,4.35,4.35,0,0,0,2.88-4.24c0-5.81,0-11.61,0-17.41v-.72a1.1,1.1,0,0,0-.37.53,11.61,11.61,0,0,1-8.07,7.33,7.93,7.93,0,0,1-1.54.21c-.13,0-.27-.21-.41-.32.1-.12.19-.29.32-.34a1.88,1.88,0,0,1,.59-.12,10.18,10.18,0,0,0,5-2.26,11.89,11.89,0,0,0,4.31-8.42c.27-3.32.2-6.69.15-10a3.46,3.46,0,0,0-1.93-3A3.81,3.81,0,0,0,301.1,224a4.56,4.56,0,0,0,.69,6,16.7,16.7,0,0,0,2.19,1.16,9.75,9.75,0,0,1,.22-1.34c0-.14.27-.26.43-.3s.28.25.26.36A2.59,2.59,0,0,0,306,232.5a.41.41,0,0,1,0,.44.46.46,0,0,1-.45.08c-.29-.17-.53-.44-.81-.63a3.62,3.62,0,0,0-1.05-.64,5.2,5.2,0,0,1-3.48-7.78l.4-.74a1.74,1.74,0,0,0-2.58.82,1.14,1.14,0,0,1-1.08.76,4.79,4.79,0,0,0-4.24,5.25c0,.53-.26.62-.65.72a2.91,2.91,0,0,0-2.33,2.59,4.86,4.86,0,0,0,2.81,4.6,4.56,4.56,0,0,0,4.36-.12c-.52-1.15-.42-2.57-1.9-3-.05,0-.11-.08-.11-.12,0-.23-.06-.46-.09-.69.2,0,.47,0,.59.12a2.31,2.31,0,0,0,2.39.59c.16,0,.38.12.57.18-.12.18-.19.42-.35.52a5.88,5.88,0,0,1-1,.34,11.46,11.46,0,0,0,.56,1.48,4.25,4.25,0,0,0,2.59,1.9c.25.09.44.39.66.6-.31,0-.66.18-.92.08a8.79,8.79,0,0,1-1.84-.92,1.16,1.16,0,0,0-1.25-.15,5.64,5.64,0,0,1-7.39-3.1c-.1-.22-.21-.44-.32-.67-2.12,1.56-2.76,5-1.41,7.62a1.36,1.36,0,0,1,0,1.43,1.82,1.82,0,0,0,.57,2.38,4,4,0,0,0,4.64-.53,1.34,1.34,0,0,1,1.56-.64c.34.07.77-.26,1.15-.41-.15-.26-.33-.5-.46-.77a4.84,4.84,0,0,1-.25-.73,4.91,4.91,0,0,0,.75.13c.45,0,.89,0,1.34,0,.23,0,.46-.05.69-.08a2,2,0,0,1-.26.73c-.26.28-.76.41-.91.72a2.06,2.06,0,0,1-2,1.19,1.76,1.76,0,0,0-1,.43,4,4,0,0,1-3.31,1.16c-.36,0-.72,0-1.13-.06a4.74,4.74,0,0,0,1.34,4c.76.75,1.82,1.2,2.13,2.35,0,0,.14.05.28.09a5.24,5.24,0,0,1,.09-.61c.21-.8.38-1.62.66-2.4.07-.2.47-.29.72-.43,0,.26,0,.51-.05.77,0,.08-.08.14-.12.22A5.53,5.53,0,0,0,298.62,259.29Zm11.68-19.9v18.09a4.4,4.4,0,0,0,1.16,2.92c1.9,2.24,5.85,2,7.13-.5a6.69,6.69,0,0,0,.36-5.7c-.33-.85-.64-1.77-1.93-1.43-.19,0-.49-.32-.74-.5A2.77,2.77,0,0,1,317,252c.76-.08,1.51-.12,1.72-1.09,0-.16.31-.27.47-.4.1.19.28.37.29.55a1.1,1.1,0,0,1-.2.73c-.4.43-.31.76,0,1.22a7.23,7.23,0,0,1,.67,5.52c-.06.26-.11.52-.18.82a5.5,5.5,0,0,0,4.88-6.3,13.19,13.19,0,0,0-.58-1.78,1.92,1.92,0,0,1,0-.63c.21.07.54.07.63.21a5.33,5.33,0,0,1,.63,1.4,17.45,17.45,0,0,1,.35,2c.21-.27.4-.41.43-.58.16-.75.7-1.08,1.29-1.46a4.6,4.6,0,0,0,1.85-4.52l-.82.09a3.49,3.49,0,0,1-2.72-.58A3.57,3.57,0,0,0,323,246a.6.6,0,0,1-.38-.17c-.66-.61-1.31-1.22-1.93-1.87-.1-.11,0-.4,0-.61.18,0,.43,0,.54,0a1,1,0,0,0,1.6,0c.14-.12.44,0,.67,0a1.69,1.69,0,0,1-.17.66,4.11,4.11,0,0,1-.74.6c.4.79,1.06.71,1.73.66.25,0,.65,0,.75.15,1,1.65,2.57,1.66,4.21,1.31a1.87,1.87,0,0,0,1.36-2.78,1.6,1.6,0,0,1,0-1.16,6.87,6.87,0,0,0,.48-5,4.57,4.57,0,0,0-1.86-2.79c-1.18,3.11-3.57,4.59-6.55,4.12a4.56,4.56,0,0,0-3.41.48,1.93,1.93,0,0,1-.4.15c-.46,0-.94.68-1.32,0a3.42,3.42,0,0,1,1.05-.7,3.39,3.39,0,0,0,2.49-3.32,1.54,1.54,0,0,1-.48-.12A6.79,6.79,0,0,1,320,235a8.48,8.48,0,0,0,.88-.13c.63-.14,1.25-.3,1.87-.47.31-.08.6-.22.9-.33a6.25,6.25,0,0,1-.48,1c-.11.17-.4.22-.59.35s-.39.27-.44.45c-.21.65-.35,1.31-.52,2a4.83,4.83,0,0,0,6.76-2.69c.74-2.29-.3-4.07-2.23-4.43-.2,0-.45-.49-.44-.74a4.75,4.75,0,0,0-4.3-5.13,1.07,1.07,0,0,1-1-.79,1.71,1.71,0,0,0-2.56-.78c.14.22.28.44.4.66,1.22,2.33,1,5.87-2.15,7.33-1,.49-2.3.57-3,1.67,0,0-.05.05-.07.05l-.69-.05c.06-.2.05-.48.18-.58a2.41,2.41,0,0,0,1-2.5c0-.13.16-.3.26-.46.15.1.4.18.44.32a9.18,9.18,0,0,1,.18,1.17,4.17,4.17,0,0,0,3.63-3.22,4.49,4.49,0,0,0-2.28-5c-2.26-1.09-5.25.42-5.33,2.9a71,71,0,0,0,.18,10.72c.59,5.1,4,9.45,9.5,10.24.23,0,.43.33.64.5-.3.11-.61.34-.88.29a11.48,11.48,0,0,1-6-2.84A15.64,15.64,0,0,1,310.3,239.39Zm-1.51,42.53h0c3.81,0,7.61,0,11.42,0a2.59,2.59,0,1,0,.09-5.18q-11.43,0-22.85,0a3.29,3.29,0,0,0-1.47.39,2.48,2.48,0,0,0-1.22,2.8,2.54,2.54,0,0,0,2.52,2C301.12,281.93,305,281.92,308.79,281.92Zm.07,2.33c-3.27,0-6.53,0-9.79,0a2.63,2.63,0,0,0-2.8,2.57,2.67,2.67,0,0,0,2.79,2.61c6.52,0,13.05,0,19.58,0a3.68,3.68,0,0,0,1.94-.77,2.33,2.33,0,0,0,.59-2.77,2.52,2.52,0,0,0-2.44-1.63Zm7.79,7.56H301a3.4,3.4,0,0,0,3.23,2.33q4.55.06,9.08,0A3.53,3.53,0,0,0,316.65,291.81Z"/><path class="cls-2" d="M310.59,206.45c0,1.29,0,2.59,0,3.89,0,.68-.2,1.23-1,1.25s-1-.51-1-1.2c0-2.63,0-5.25,0-7.88,0-.66.15-1.22,1-1.25s1,.38,1,1.29C310.6,203.85,310.59,205.15,310.59,206.45Z"/><path class="cls-2" d="M276.57,252.88c-.16.17-.41.62-.76.73-2.71.87-5.44,1.68-8.16,2.5a.9.9,0,0,1-1.28-.65,1,1,0,0,1,.74-1.25c2.66-.82,5.33-1.64,8-2.44C276,251.52,276.54,251.9,276.57,252.88Z"/><path class="cls-2" d="M341.36,252.08c.47.12.72.18,1,.26,2.5.76,5,1.54,7.5,2.29.68.2,1.12.56.93,1.29s-.8.83-1.45.63c-2.67-.8-5.33-1.62-8-2.44a.9.9,0,0,1-.71-1.18C340.72,252.57,341.14,252.31,341.36,252.08Z"/><path class="cls-2" d="M275.49,271.61c-.27-.23-.7-.42-.76-.69a1.4,1.4,0,0,1,.24-1.14c2.14-1.67,4.32-3.27,6.51-4.88a.88.88,0,0,1,1.3.24,1,1,0,0,1-.25,1.44l-4.22,3.17c-.64.48-1.29,1-1.95,1.44A6.52,6.52,0,0,1,275.49,271.61Z"/><path class="cls-2" d="M342.64,271.06c-.23.29-.4.7-.65.76a1.67,1.67,0,0,1-1.17-.15c-1.63-1.14-3.2-2.35-4.8-3.54-.48-.36-1-.71-1.45-1.09a.94.94,0,0,1-.21-1.44.9.9,0,0,1,1.37-.16q3.21,2.35,6.38,4.75C342.34,270.36,342.43,270.7,342.64,271.06Z"/><path class="cls-2" d="M271.46,240.5h-3.89c-.7,0-1.23-.2-1.23-1s.53-1,1.23-1q3.9,0,7.78,0c.71,0,1.19.25,1.17,1s-.52.93-1.18.93Z"/><path class="cls-2" d="M345.64,241h-3.89c-.67,0-1.15-.26-1.17-1s.45-1,1.13-1c2.64,0,5.29,0,7.94,0,.67,0,1.15.27,1.13,1s-.5,1-1.17,1Z"/><path class="cls-2" d="M337.42,224.63c.11-.13.27-.49.56-.64,2-1.12,4-2.19,6.06-3.28.58-.3,1.17-.33,1.49.32a1,1,0,0,1-.58,1.47c-2,1-3.95,2.13-5.94,3.17C338.15,226.12,337.41,225.71,337.42,224.63Z"/><path class="cls-2" d="M271.27,221.62a8.7,8.7,0,0,1,.85.34c2,1,3.91,2.09,5.87,3.12.61.33,1,.79.63,1.47s-.94.65-1.55.32c-2-1.07-3.95-2.13-5.94-3.18a1,1,0,0,1-.6-1.26C270.66,222.12,271,221.89,271.27,221.62Z"/><path class="cls-2" d="M292.6,215.41c-.21.23-.46.72-.72.73a1.6,1.6,0,0,1-1.23-.49c-1-1.37-1.88-2.83-2.8-4.25-.35-.54-.7-1.06-1-1.61a.9.9,0,0,1,.29-1.29.91.91,0,0,1,1.37.24c1.31,2,2.59,3.95,3.87,5.94A4.1,4.1,0,0,1,292.6,215.41Z"/><path class="cls-2" d="M330.52,209.15a6.74,6.74,0,0,1-.43,1c-1.17,1.81-2.36,3.61-3.52,5.43-.39.61-.91.87-1.52.5s-.55-1-.18-1.59c1.21-1.86,2.39-3.74,3.65-5.56a1.65,1.65,0,0,1,1.22-.51C330,208.42,330.26,208.89,330.52,209.15Z"/></svg>